<?xml version="1.0" encoding="UTF-8"?><svg id="Layer_2" xmlns="http://www.w3.org/2000/svg" viewBox="0 0 368.87 512"><defs><style>.cls-1,.cls-2{stroke-width:0px;}.cls-2{fill:#fff;}</style></defs><g id="Layer_1-2"><polygon class="cls-2" points="163.79 0 209.03 0 276.35 93.79 281.86 281.38 250.97 401.66 120.76 392.83 68.9 268.14 116.35 123.59 163.79 0"/><path class="cls-1" d="m368.87,183.25c0,170.82-184.43,328.75-184.43,328.75,0,0-19.86-17.09-46.52-46.05-8.86-9.57-18.44-20.49-28.33-32.6C58.47,371.08,0,278.91,0,183.25S71.76,10.05,164.18,0l1.98,86.96c.4,17.09-5.54,33.63-16.54,46.52l-34.58,40.59c-9.81,11.47-14.72,26.27-13.85,41.14,0,.79.08,1.42.16,2.14l15.43,128.42c.48,4.59,4.27,8.07,8.78,8.07,2.61,0,5.22-1.11,7.04-2.93s2.93-4.43,2.93-7.04l-.08-113.22.08-1.03c0-5.06,4.11-9.1,9.02-9.02,5.06,0,9.1,4.04,9.1,9.1v148.35c0,3.17,1.19,6.09,3.4,8.31s5.14,3.4,8.23,3.32c6.81.08,12.34-5.46,12.34-12.34v-147.64c0-5.06,4.04-9.1,9.1-9.1s9.02,3.96,9.02,9.02v148.91c0,6.09,4.98,11.16,11.23,11.24,3.09,0,6.17-1.27,8.39-3.56,2.22-2.21,3.48-5.22,3.48-8.31v-148.27c0-5.06,4.04-9.1,9.1-9.1,4.19,0,7.83,3.01,8.7,7.04.32.55.32,1.27.4,2.06v114.73c-.08,5.22,4.19,9.5,9.42,9.42,1.74,0,3.32-.4,4.75-1.19l4.35-4.35c.55-1.19.95-2.45,1.11-3.88l15.35-127.07c.32-2.93.4-5.85.08-8.7-.55-12.74-5.38-24.76-13.69-34.5l-34.58-40.59c-11-12.98-16.85-29.51-16.46-46.44l1.9-86.48c90.04,12.03,159.59,89.25,159.59,182.69Z"/></g></svg>