<?xml version="1.0" encoding="UTF-8"?><svg id="Layer_2" xmlns="http://www.w3.org/2000/svg" viewBox="0 0 290.01 66.98"><defs><style>.cls-1{fill:none;}.cls-1,.cls-2{stroke-width:0px;}</style></defs><g id="Layer_1-2"><path class="cls-2" d="m287.02,3.6v60.4H2.98V3.6h284.04m2.98-2.98H0v66.36h290.01V.62h0Z"/><path class="cls-2" d="m56.45,51.34h-5.7V15.1h5.7v15.53h6.47v-15.53h5.8v36.25h-5.8v-15.53h-6.47v15.53Z"/><path class="cls-2" d="m91.3,51.34h-5.75l-.98-6.58h-6.99l-.98,6.58h-5.23l5.8-36.25h8.34l5.8,36.25Zm-13-11.5h5.49l-2.74-18.33-2.74,18.33Z"/><path class="cls-2" d="m105.84,51.34c-.31-.93-.52-1.5-.52-4.45v-5.7c0-3.37-1.14-4.61-3.73-4.61h-1.97v14.76h-5.7V15.1h8.6c5.9,0,8.44,2.74,8.44,8.34v2.85c0,3.73-1.19,6.16-3.73,7.35,2.85,1.19,3.78,3.94,3.78,7.72v5.59c0,1.76.05,3.06.62,4.4h-5.8Zm-6.21-31.07v11.13h2.23c2.12,0,3.42-.93,3.42-3.83v-3.57c0-2.59-.88-3.73-2.9-3.73h-2.74Z"/><path class="cls-2" d="m123.24,44.66l4.35-29.57h5.23l-5.59,36.25h-8.49l-5.59-36.25h5.75l4.35,29.57Z"/><path class="cls-2" d="m141.15,30.37h7.82v5.18h-7.82v10.61h9.84v5.18h-15.53V15.1h15.53v5.18h-9.84v10.1Z"/><path class="cls-2" d="m162.17,14.68c5.54,0,8.39,3.31,8.39,9.11v1.14h-5.39v-1.5c0-2.59-1.04-3.57-2.85-3.57s-2.85.98-2.85,3.57c0,7.46,11.13,8.85,11.13,19.21,0,5.8-2.9,9.11-8.49,9.11s-8.49-3.31-8.49-9.11v-2.23h5.39v2.59c0,2.59,1.14,3.52,2.95,3.52s2.95-.93,2.95-3.52c0-7.46-11.13-8.85-11.13-19.21,0-5.8,2.85-9.11,8.39-9.11Z"/><path class="cls-2" d="m172.22,15.1h17.6v5.18h-5.96v31.07h-5.7v-31.07h-5.95v-5.18Z"/><path class="cls-2" d="m216.85,37.83v4.82c0,5.8-2.9,9.11-8.49,9.11s-8.49-3.31-8.49-9.11v-18.85c0-5.8,2.9-9.11,8.49-9.11s8.49,3.31,8.49,9.11v3.52h-5.38v-3.88c0-2.59-1.14-3.57-2.95-3.57s-2.95.98-2.95,3.57v19.57c0,2.59,1.14,3.52,2.95,3.52s2.95-.93,2.95-3.52v-5.18h5.38Z"/><path class="cls-2" d="m238.75,51.34h-5.75l-.98-6.58h-6.99l-.98,6.58h-5.23l5.8-36.25h8.34l5.8,36.25Zm-13-11.5h5.49l-2.74-18.33-2.74,18.33Z"/><path class="cls-2" d="m247.08,31.2h7.35v5.18h-7.35v14.96h-5.7V15.1h15.07v5.18h-9.37v10.93Z"/><path class="cls-2" d="m264.89,30.37h7.82v5.18h-7.82v10.61h9.84v5.18h-15.53V15.1h15.53v5.18h-9.84v10.1Z"/><path class="cls-2" d="m42.21,27.77c0,12.48-13.47,24.01-13.47,24.01,0,0-1.45-1.25-3.4-3.36-.65-.7-1.35-1.5-2.07-2.38-3.73-4.55-8-11.28-8-18.27s5.24-12.65,11.99-13.38l.14,6.35c.03,1.25-.4,2.46-1.21,3.4l-2.53,2.96c-.72.84-1.07,1.92-1.01,3,0,.06,0,.1.01.16l1.13,9.38c.03.34.31.59.64.59.19,0,.38-.08.51-.21s.21-.32.21-.51v-8.27s0-.08,0-.08c0-.37.3-.66.66-.66.37,0,.66.29.66.66v10.83c0,.23.09.44.25.61s.38.25.6.24c.5,0,.9-.4.9-.9v-10.78c0-.37.29-.66.66-.66s.66.29.66.66v10.88c0,.44.36.81.82.82.23,0,.45-.09.61-.26.16-.16.25-.38.25-.61v-10.83c0-.37.29-.66.66-.66.31,0,.57.22.64.51.02.04.02.09.03.15v8.38c0,.38.31.69.69.69.13,0,.24-.03.35-.09l.32-.32c.04-.09.07-.18.08-.28l1.12-9.28c.02-.21.03-.43,0-.64-.04-.93-.39-1.81-1-2.52l-2.53-2.96c-.8-.95-1.23-2.16-1.2-3.39l.14-6.32c6.58.88,11.66,6.52,11.66,13.34Z"/><polygon class="cls-1" points="240.56 0 236.97 3.6 230.51 3.6 234.11 0 240.56 0"/><polygon class="cls-1" points="259.27 0 255.67 3.6 249.2 3.6 252.8 0 259.27 0"/></g></svg>