<?xml version="1.0" encoding="UTF-8"?><svg id="Layer_2" xmlns="http://www.w3.org/2000/svg" viewBox="0 0 637.63 147.27"><defs><style>.cls-1{fill:none;}.cls-1,.cls-2{stroke-width:0px;}.cls-2{fill:#fff;}</style></defs><g id="Layer_1-2"><path class="cls-2" d="m631.07,7.91v132.81H6.55V7.91h624.52m6.55-6.55H0v145.91h637.63V1.35h0Z"/><path class="cls-2" d="m124.12,112.89h-12.52V33.2h12.52v34.15h14.23v-34.15h12.75v79.69h-12.75v-34.15h-14.23v34.15Z"/><path class="cls-2" d="m200.73,112.89h-12.64l-2.16-14.46h-15.37l-2.16,14.46h-11.5l12.75-79.69h18.33l12.75,79.69Zm-28.58-25.27h12.07l-6.03-40.3-6.03,40.3Z"/><path class="cls-2" d="m232.72,112.89c-.68-2.05-1.14-3.3-1.14-9.79v-12.52c0-7.4-2.5-10.13-8.2-10.13h-4.33v32.45h-12.52V33.2h18.9c12.98,0,18.56,6.03,18.56,18.33v6.26c0,8.2-2.62,13.55-8.2,16.17,6.26,2.62,8.31,8.65,8.31,16.96v12.29c0,3.87.11,6.72,1.37,9.68h-12.75Zm-13.66-68.31v24.48h4.9c4.67,0,7.51-2.05,7.51-8.42v-7.86c0-5.69-1.94-8.2-6.38-8.2h-6.03Z"/><path class="cls-2" d="m270.97,98.2l9.56-65.01h11.5l-12.29,79.69h-18.67l-12.3-79.69h12.64l9.56,65.01Z"/><path class="cls-2" d="m310.35,66.78h17.19v11.38h-17.19v23.34h21.63v11.38h-34.15V33.2h34.15v11.38h-21.63v22.2Z"/><path class="cls-2" d="m356.57,32.28c12.18,0,18.44,7.29,18.44,20.04v2.5h-11.84v-3.3c0-5.69-2.28-7.86-6.26-7.86s-6.26,2.16-6.26,7.86c0,16.39,24.48,19.47,24.48,42.24,0,12.75-6.38,20.04-18.67,20.04s-18.67-7.29-18.67-20.04v-4.9h11.84v5.69c0,5.69,2.5,7.74,6.49,7.74s6.49-2.05,6.49-7.74c0-16.39-24.48-19.47-24.48-42.24,0-12.75,6.26-20.04,18.44-20.04Z"/><path class="cls-2" d="m378.65,33.2h38.71v11.38h-13.09v68.31h-12.52V44.58h-13.09v-11.38Z"/><path class="cls-2" d="m476.78,83.17v10.59c0,12.75-6.38,20.04-18.67,20.04s-18.67-7.29-18.67-20.04v-41.44c0-12.75,6.38-20.04,18.67-20.04s18.67,7.29,18.67,20.04v7.74h-11.84v-8.54c0-5.69-2.51-7.86-6.49-7.86s-6.49,2.16-6.49,7.86v43.03c0,5.69,2.5,7.74,6.49,7.74s6.49-2.05,6.49-7.74v-11.38h11.84Z"/><path class="cls-2" d="m524.93,112.89h-12.64l-2.16-14.46h-15.37l-2.16,14.46h-11.5l12.75-79.69h18.33l12.75,79.69Zm-28.58-25.27h12.07l-6.03-40.3-6.03,40.3Z"/><path class="cls-2" d="m543.26,68.6h16.17v11.38h-16.17v32.9h-12.52V33.2h33.13v11.38h-20.61v24.02Z"/><path class="cls-2" d="m582.42,66.78h17.19v11.38h-17.19v23.34h21.63v11.38h-34.15V33.2h34.15v11.38h-21.63v22.2Z"/><path class="cls-2" d="m92.81,61.05c0,27.43-29.62,52.79-29.62,52.79,0,0-3.19-2.74-7.47-7.39-1.42-1.54-2.96-3.29-4.55-5.23-8.21-10-17.6-24.8-17.6-40.16s11.52-27.81,26.36-29.43l.32,13.96c.06,2.74-.89,5.4-2.66,7.47l-5.55,6.52c-1.58,1.84-2.36,4.22-2.22,6.61,0,.13.01.23.03.34l2.48,20.62c.08.74.69,1.3,1.41,1.3.42,0,.84-.18,1.13-.47s.47-.71.47-1.13v-18.18s0-.17,0-.17c0-.81.66-1.46,1.45-1.45.81,0,1.46.65,1.46,1.46v23.82c0,.51.19.98.55,1.33s.83.55,1.32.53c1.09.01,1.98-.88,1.98-1.98v-23.71c0-.81.65-1.46,1.46-1.46s1.45.64,1.45,1.45v23.91c0,.98.8,1.79,1.8,1.8.5,0,.99-.2,1.35-.57.36-.36.56-.84.56-1.33v-23.81c0-.81.65-1.46,1.46-1.46.67,0,1.26.48,1.4,1.13.05.09.05.2.06.33v18.42c-.01.84.67,1.52,1.51,1.51.28,0,.53-.06.76-.19l.7-.7c.09-.19.15-.39.18-.62l2.46-20.4c.05-.47.06-.94.01-1.4-.09-2.05-.86-3.98-2.2-5.54l-5.55-6.52c-1.77-2.08-2.71-4.74-2.64-7.46l.3-13.89c14.46,1.93,25.63,14.33,25.63,29.34Z"/><polygon class="cls-1" points="528.92 0 521.02 7.91 506.82 7.91 514.72 0 528.92 0"/><polygon class="cls-1" points="570.05 0 562.14 7.91 547.91 7.91 555.82 0 570.05 0"/></g></svg>